<svg width="13" height="13" viewBox="0 0 13 13" fill="none" xmlns="http://www.w3.org/2000/svg">
<path fill-rule="evenodd" clip-rule="evenodd" d="M11.6266 0.923468C10.405 -0.305509 8.42306 -0.306097 7.19971 0.911399C7.198 0.913137 7.19609 0.914557 7.19448 0.916295C7.19313 0.917519 7.19198 0.919062 7.19073 0.92031L0.633305 7.47458C0.555287 7.55262 0.505837 7.65473 0.493132 7.76442L0.00333263 11.9877C-0.0329225 12.3 0.231781 12.5672 0.546474 12.5304L4.74607 12.0408C4.85537 12.0281 4.95711 11.9789 5.03506 11.9013L5.04404 11.8923C5.04566 11.8907 5.0474 11.8894 5.04901 11.8878C5.05046 11.8864 5.05168 11.8846 5.05322 11.8832L11.6159 5.34231C12.8356 4.12701 12.8404 2.14469 11.6266 0.923468ZM7.54082 1.95496L8.7154 3.12935L2.84837 8.99531L1.67295 7.81997L7.54082 1.95496ZM1.04736 11.4863L1.34955 8.88143C1.61241 9.1443 3.39192 10.9235 3.65114 11.1827L1.04736 11.4863ZM4.70303 10.8496L3.54098 9.68763L9.40792 3.82177L10.5793 4.9929L4.70303 10.8496ZM11.2323 4.26099L8.27322 1.30242C9.08709 0.795119 10.1983 0.87556 10.9319 1.61369C11.6463 2.3324 11.7456 3.43486 11.2323 4.26099Z" fill="#211E26"/>
</svg>
