<svg width="12" height="14" viewBox="0 0 12 14" fill="none" xmlns="http://www.w3.org/2000/svg">
<path fill-rule="evenodd" clip-rule="evenodd" d="M3.1289 3.94622C3.28162 3.79308 3.4816 3.71674 3.6813 3.71674C3.88136 3.71674 4.08106 3.79308 4.23369 3.94622L5.21168 4.92685V0.783325C5.21168 0.350726 5.56143 0 5.99283 0C6.4245 0 6.77434 0.350726 6.77434 0.783325V4.97987L7.80511 3.94622C7.95774 3.79308 8.15744 3.71674 8.3575 3.71674C8.55711 3.71674 8.75718 3.79308 8.9098 3.94622C9.09764 4.13421 9.16881 4.39459 9.12569 4.63836L9.12532 4.63873C9.1221 4.65643 9.11668 4.6733 9.11208 4.69064C9.10555 4.71765 9.09838 4.74467 9.08836 4.77057C9.08192 4.78818 9.07466 4.80552 9.06675 4.82276C9.05461 4.85014 9.04018 4.87614 9.02473 4.90242C9.01655 4.91606 9.00901 4.9298 9 4.94308C8.97306 4.98162 8.94401 5.01905 8.90953 5.05363L6.57749 7.39217C6.42487 7.54522 6.2248 7.62119 6.0251 7.62119H6.01398C5.814 7.62119 5.6143 7.54522 5.46168 7.39217L3.12927 5.05363C3.09516 5.01905 3.06611 4.98199 3.03954 4.94308C3.03016 4.9298 3.02262 4.9157 3.01434 4.90205C2.9989 4.87614 2.98492 4.85014 2.97269 4.82313C2.96479 4.80552 2.95725 4.78782 2.95081 4.77021C2.94143 4.7443 2.93426 4.71839 2.92746 4.69202C2.92314 4.67404 2.91707 4.65643 2.91385 4.63799C2.86999 4.39459 2.94106 4.13421 3.1289 3.94622ZM12 11.6142C12 12.6716 10.966 13.5 9.64571 13.5H2.35429C1.03436 13.5 0 12.6716 0 11.6142V6.5242C0 5.63061 0.739863 4.90242 1.76558 4.69783C1.81017 5.139 2.00297 5.54818 2.31981 5.86581L2.62221 6.16905H2.35429C1.81982 6.16905 1.52643 6.43588 1.52643 6.5242V11.6142C1.52643 11.7028 1.81982 11.9697 2.35429 11.9697H9.64608C10.1805 11.9697 10.4739 11.7025 10.4739 11.6142V6.5242C10.4739 6.43588 10.1802 6.16905 9.64608 6.16905H9.41659L9.71899 5.86581C10.034 5.54993 10.2261 5.1437 10.2718 4.70576C11.2781 4.9204 12 5.64176 12 6.52448V11.6142Z" fill="#2A2C30"/>
</svg>
