<svg width="14" height="13" viewBox="0 0 14 13" fill="none" xmlns="http://www.w3.org/2000/svg">
<mask id="mask0_0:397" style="mask-type:alpha" maskUnits="userSpaceOnUse" x="0" y="0" width="14" height="13">
<path fill-rule="evenodd" clip-rule="evenodd" d="M0.833984 0H13.3664V12.5338H0.833984V0Z" fill="white"/>
</mask>
<g mask="url(#mask0_0:397)">
<path fill-rule="evenodd" clip-rule="evenodd" d="M12.4586 0.923468C11.237 -0.305509 9.25509 -0.306097 8.03175 0.911399C8.03003 0.913137 8.02812 0.914557 8.02651 0.916295C8.02516 0.917519 8.02401 0.919062 8.02276 0.92031L1.46534 7.47458C1.38732 7.55262 1.33787 7.65473 1.32516 7.76442L0.835364 11.9877C0.799109 12.3 1.06381 12.5672 1.37851 12.5304L5.5781 12.0408C5.6874 12.0281 5.78914 11.9789 5.86709 11.9013L5.87607 11.8923C5.87769 11.8907 5.87943 11.8894 5.88104 11.8878C5.88249 11.8864 5.88371 11.8846 5.88525 11.8832L12.4479 5.34231C13.6676 4.12701 13.6724 2.14469 12.4586 0.923468ZM8.37285 1.95496L9.54743 3.12935L3.6804 8.99531L2.50498 7.81997L8.37285 1.95496ZM1.87939 11.4863L2.18158 8.88143C2.44444 9.1443 4.22396 10.9235 4.48318 11.1827L1.87939 11.4863ZM5.53506 10.8496L4.37302 9.68763L10.24 3.82177L11.4114 4.9929L5.53506 10.8496ZM12.0643 4.26099L9.10525 1.30242C9.91912 0.795119 11.0303 0.87556 11.7639 1.61369C12.4783 2.3324 12.5776 3.43486 12.0643 4.26099Z" fill="#211E26"/>
</g>
</svg>
