<svg width="13" height="14" viewBox="0 0 13 14" fill="none" xmlns="http://www.w3.org/2000/svg">
<path fill-rule="evenodd" clip-rule="evenodd" d="M3.96094 3.94622C4.11365 3.79308 4.31363 3.71674 4.51333 3.71674C4.71339 3.71674 4.91309 3.79308 5.06572 3.94622L6.04371 4.92685V0.783325C6.04371 0.350726 6.39346 0 6.82486 0C7.25653 0 7.60637 0.350726 7.60637 0.783325V4.97987L8.63714 3.94622C8.78977 3.79308 8.98947 3.71674 9.18954 3.71674C9.38914 3.71674 9.58921 3.79308 9.74184 3.94622C9.92967 4.13421 10.0008 4.39459 9.95772 4.63836L9.95735 4.63873C9.95413 4.65643 9.94871 4.6733 9.94411 4.69064C9.93758 4.71765 9.93041 4.74467 9.92039 4.77057C9.91395 4.78818 9.90669 4.80552 9.89878 4.82276C9.88665 4.85014 9.87221 4.87614 9.85676 4.90242C9.84858 4.91606 9.84104 4.9298 9.83203 4.94308C9.80509 4.98162 9.77604 5.01905 9.74156 5.05363L7.40952 7.39217C7.2569 7.54522 7.05683 7.62119 6.85713 7.62119H6.84601C6.64603 7.62119 6.44633 7.54522 6.29371 7.39217L3.9613 5.05363C3.92719 5.01905 3.89814 4.98199 3.87157 4.94308C3.86219 4.9298 3.85465 4.9157 3.84637 4.90205C3.83093 4.87614 3.81695 4.85014 3.80472 4.82313C3.79682 4.80552 3.78928 4.78782 3.78284 4.77021C3.77346 4.7443 3.76629 4.71839 3.75949 4.69202C3.75517 4.67404 3.7491 4.65643 3.74588 4.63799C3.70202 4.39459 3.7731 4.13421 3.96094 3.94622ZM12.832 11.6142C12.832 12.6716 11.798 13.5 10.4777 13.5H3.18632C1.86639 13.5 0.832031 12.6716 0.832031 11.6142V6.5242C0.832031 5.63061 1.57189 4.90242 2.59761 4.69783C2.6422 5.139 2.835 5.54818 3.15184 5.86581L3.45424 6.16905H3.18632C2.65185 6.16905 2.35846 6.43588 2.35846 6.5242V11.6142C2.35846 11.7028 2.65185 11.9697 3.18632 11.9697H10.4781C11.0126 11.9697 11.306 11.7025 11.306 11.6142V6.5242C11.306 6.43588 11.0122 6.16905 10.4781 6.16905H10.2486L10.551 5.86581C10.866 5.54993 11.0582 5.1437 11.1038 4.70576C12.1101 4.9204 12.832 5.64176 12.832 6.52448V11.6142Z" fill="#2A2C30"/>
</svg>
