<svg width="10" height="11" viewBox="0 0 10 11" fill="none" xmlns="http://www.w3.org/2000/svg">
<path opacity="0.5" fill-rule="evenodd" clip-rule="evenodd" d="M5.90243 5.84404L9.72745 1.65067C9.89879 1.46283 9.89879 1.15831 9.72745 0.970469C9.55611 0.78263 9.27835 0.78263 9.10701 0.970469L5.28198 5.16384L1.45696 0.97111C1.28562 0.783271 1.00785 0.783271 0.836512 0.97111C0.665173 1.15895 0.665173 1.46347 0.836512 1.65131L4.66153 5.84468L0.837097 10.0374C0.665758 10.2252 0.665758 10.5298 0.837097 10.7176C0.923059 10.8112 1.03475 10.8586 1.14703 10.8586C1.25931 10.8586 1.37158 10.8118 1.45696 10.7176L5.28198 6.52423L9.10701 10.7176C9.19297 10.8112 9.30466 10.8586 9.41694 10.8586C9.52921 10.8586 9.64149 10.8118 9.72687 10.7176C9.89821 10.5298 9.89821 10.2252 9.72687 10.0374L5.90243 5.84404Z" fill="black"/>
</svg>
